Input #0, mov,mp4,m4a,3gp,3g2,mj2, from '/home/hbattu/projects/huberman-gpt/huberman-audio/mp3/tmp1p_jvmgl.mp4':
  Metadata:
    major_brand     : dash
    minor_version   : 0
    compatible_brands: iso6mp41
    creation_time   : 2022-09-18T10:27:11.000000Z
  Duration: 02:04:20.04, start: 0.000000, bitrate: 129 kb/s
    Stream #0:0(eng): Audio: aac (LC) (mp4a / 0x6134706D), 44100 Hz, stereo, fltp, 0 kb/s (default)
    Metadata:
      creation_time   : 2022-09-18T10:27:11.000000Z
      handler_name    : ISO Media file produced by Google Inc.
Stream mapping:
  Stream #0:0 -> #0:0 (aac (native) -> mp3 (libmp3lame))
Press [q] to stop, [?] for help
[graph_0_in_0_0 @ 0x556523fe5dc0] tb:1/44100 samplefmt:fltp samplerate:44100 chlayout:0x3
Output #0, mp3, to '../huberman-audio/mp3/XLr2RKoD-oY.mp3':
  Metadata:
    major_brand     : dash
    minor_version   : 0
    compatible_brands: iso6mp41
    TSSE            : Lavf58.29.100
    Stream #0:0(eng): Audio: mp3 (libmp3lame), 44100 Hz, stereo, fltp, delay 1105 (default)
    Metadata:
      creation_time   : 2022-09-18T10:27:11.000000Z
      handler_name    : ISO Media file produced by Google Inc.
      encoder         : Lavc58.54.100 libmp3lame
No more output streams to write to, finishing.
size=  116564kB time=02:04:20.05 bitrate= 128.0kbits/s speed=84.2x    
[AVIOContext @ 0x556523ed5900] Statistics: 0 seeks, 178 writeouts
video:0kB audio:116564kB subtitle:0kB other streams:0kB global headers:0kB muxing overhead: 0.000290%
Input file #0 (/home/hbattu/projects/huberman-gpt/huberman-audio/mp3/tmp1p_jvmgl.mp4):
  Input stream #0:0 (audio): 321277 packets read (119360597 bytes); 321277 frames decoded (328987648 samples); 
  Total: 321277 packets (119360597 bytes) demuxed
Output file #0 (../huberman-audio/mp3/XLr2RKoD-oY.mp3):
  Output stream #0:0 (audio): 285580 frames encoded (328987648 samples); 285581 packets muxed (119361201 bytes); 
  Total: 285581 packets (119361201 bytes) muxed
[AVIOContext @ 0x556523f00f00] Statistics: 2 seeks, 457 writeouts
[AVIOContext @ 0x556523ede880] Statistics: 120733137 bytes read, 0 seeks
